Coordinates
version=1
nRows=16
nColumns=40
inDegrees=yes

Units are S.I. units (second, meters, Newtons, ...)
Angles are in degrees.

endheader
time	pelvis_tilt	pelvis_list	pelvis_rotation	pelvis_tx	pelvis_ty	pelvis_tz	hip_flexion_r	hip_adduction_r	hip_rotation_r	knee_angle_r	knee_angle_r_beta	ankle_angle_r	subtalar_angle_r	mtp_angle_r	hip_flexion_l	hip_adduction_l	hip_rotation_l	knee_angle_l	knee_angle_l_beta	ankle_angle_l	subtalar_angle_l	mtp_angle_l	lumbar_extension	lumbar_bending	lumbar_rotation	arm_flex_r	arm_add_r	arm_rot_r	elbow_flex_r	pro_sup_r	wrist_flex_r	wrist_dev_r	arm_flex_l	arm_add_l	arm_rot_l	elbow_flex_l	pro_sup_l	wrist_flex_l	wrist_dev_l
     27.12800000	     -2.82263301	     -5.22405072	     -2.95786131	      0.87159051	      0.93944981	      0.39442972	     33.06590480	     -4.82555487	     -5.07856391	     57.88109888	     57.88109888	      1.78375953	    -16.63427697	      2.26099751	      8.64334781	     -5.83499941	    -10.85988313	     17.05472936	     17.05472936	     12.78209073	    -10.78855094	      0.40389118	    -12.14335766	      6.61697757	      1.95379100	     -7.35199730	    -11.52522512	     -7.45905297	     20.24672671	     46.73603974	      0.00000000	      0.00000000	      1.03469284	    -14.39112361	      6.54360593	     69.40862075	     46.63832533	      0.00000000	      0.00000000
     27.14100000	     -3.03827017	     -5.42389310	     -3.22182526	      0.87081662	      0.93961990	      0.39476558	     33.14680193	     -4.41052160	     -5.60251713	     55.14652925	     55.14652925	      2.25859803	    -16.47858540	      2.49739202	      8.26117543	     -6.01338075	    -10.98183895	     16.57741582	     16.57741582	     12.82928413	    -10.79123096	      0.41217540	    -12.02153528	      6.72758114	      1.90265664	     -8.46638085	    -11.44878623	     -7.48378141	     20.02864087	     46.73751373	      0.00000000	      0.00000000	      1.39847628	    -14.18691304	      6.66600642	     70.62133775	     46.65587564	      0.00000000	      0.00000000
     27.15400000	     -3.14853035	     -5.59955722	     -3.54013631	      0.87006368	      0.93975240	      0.39528909	     32.95581928	     -3.95617824	     -6.10896430	     52.04599210	     52.04599210	      2.70865771	    -16.15558171	      2.67887176	      7.77597971	     -6.17479220	    -11.16051434	     16.14841043	     16.14841043	     12.89441258	    -10.85269602	      0.37079687	    -12.06324105	      6.80124392	      2.05194636	     -9.52197713	    -11.44888455	     -7.52040980	     19.95103313	     46.73450350	      0.00000000	      0.00000000	      1.78837170	    -14.06638498	      6.86024390	     72.29367236	     46.67758036	      0.00000000	      0.00000000
     27.16700000	     -3.20959149	     -5.64020310	     -3.88867037	      0.86934745	      0.93973380	      0.39600406	     32.56357461	     -3.58755542	     -6.55774305	     48.61234638	     48.61234638	      2.92341076	    -15.64699959	      2.13325319	      7.22797468	     -6.20748302	    -11.46386464	     15.70011174	     15.70011174	     12.82945288	    -10.90031458	     -0.04172166	    -12.21729574	      6.64804716	      2.22663856	    -10.77452721	    -11.45096750	     -7.64799966	     20.92017144	     46.69264101	      0.00000000	      0.00000000	      1.68217049	    -14.68565429	      7.75793643	     75.99013573	     46.70219101	      0.00000000	      0.00000000
     27.18000000	     -3.38174040	     -5.80487529	     -4.17526568	      0.86859942	      0.93954477	      0.39682039	     32.05897395	     -3.08053744	     -7.18275676	     44.81174177	     44.81174177	      3.25604697	    -14.72844316	      2.14830953	      6.93484841	     -6.40369972	    -11.60797027	     15.50488760	     15.50488760	     12.94058155	    -11.02725369	     -0.16965558	    -12.14587379	      6.71942603	      2.22724732	    -11.41765659	    -11.50727485	     -7.64175256	     20.96740680	     46.68452535	      0.00000000	      0.00000000	      2.19285180	    -14.73984457	      7.79423776	     77.00839388	     46.72957500	      0.00000000	      0.00000000
     27.19300000	     -3.52774336	     -5.87018063	     -4.48408833	      0.86795890	      0.93919516	      0.39779121	     31.31664611	     -2.63916009	     -7.83008710	     40.66528080	     40.66528080	      3.08803758	    -13.61716159	      0.63378718	      6.56815516	     -6.51024686	    -11.90986806	     15.23756998	     15.23756998	     12.96417689	    -11.00040242	     -0.63686360	    -12.13756912	      6.65320807	      2.29974213	    -12.24279416	    -11.56457001	     -7.55108026	     21.90461986	     46.63047021	      0.00000000	      0.00000000	      2.39380694	    -15.32063412	      8.32444868	     79.42314215	     46.78422270	      0.00000000	      0.00000000
     27.20600000	     -3.73405742	     -5.96197914	     -4.75879649	      0.86735937	      0.93870426	      0.39888850	     30.50426301	     -2.08436289	     -8.43033022	     36.42011377	     36.42011377	      3.35764426	    -12.16522040	      0.89609245	      6.35366242	     -6.65733871	    -12.06585769	     15.13828540	     15.13828540	     13.11779194	    -11.14397527	     -0.73428241	    -11.96542964	      6.65488566	      2.39687862	    -12.55997937	    -11.59180742	     -7.51273539	     21.85822331	     46.62676625	      0.00000000	      0.00000000	      3.04529586	    -15.43715683	      8.20003460	     80.11573405	     46.81574725	      0.00000000	      0.00000000
     27.21900000	     -3.79852796	     -6.01931087	     -4.99437160	      0.86699667	      0.93825787	      0.40002216	     29.35611193	     -1.58287888	     -9.14099897	     32.06451783	     32.06451783	      3.58611711	    -10.21015008	      1.08237585	      5.98096256	     -6.76804088	    -12.24674653	     15.06177271	     15.06177271	     13.32596068	    -11.16022210	     -0.90811006	    -11.95489476	      6.62040496	      2.55183615	    -12.79151731	    -11.67173771	     -7.47803320	     21.90140430	     46.62067400	      0.00000000	      0.00000000	      3.63855208	    -15.63544823	      8.18536713	     81.12311473	     46.84789226	      0.00000000	      0.00000000
     27.23200000	     -3.86742323	     -6.01845165	     -5.19985753	      0.86682401	      0.93761887	      0.40125311	     28.12513845	     -1.12998625	     -9.90835728	     27.81398505	     27.81398505	      3.73107210	     -8.05976262	      1.39353872	      5.62504906	     -6.82968687	    -12.47700371	     15.01651455	     15.01651455	     13.56295801	    -11.11586454	     -1.13212850	    -11.88850565	      6.51942543	      2.65291767	    -12.85877006	    -11.73124114	     -7.44625893	     22.03325251	     46.61255983	      0.00000000	      0.00000000	      4.16580383	    -15.97043895	      8.21095792	     82.13586437	     46.87850977	      0.00000000	      0.00000000
     27.24500000	     -3.90718838	     -5.95860283	     -5.36875044	      0.86686800	      0.93685743	      0.40253649	     26.82985509	     -0.72336758	    -10.66640381	     23.82924043	     23.82924043	      3.79770646	     -5.88385978	      1.92830905	      5.25369400	     -6.83649944	    -12.71039378	     15.01557270	     15.01557270	     13.82901826	    -11.02190477	     -1.39702745	    -11.79634943	      6.39069192	      2.71154796	    -12.77297738	    -11.78400038	     -7.41099672	     22.21273856	     46.60366631	      0.00000000	      0.00000000	      4.66780030	    -16.36870551	      8.22852620	     83.03987292	     46.90894459	      0.00000000	      0.00000000
     27.25800000	     -3.88954706	     -5.84121961	     -5.49127728	      0.86715374	      0.93602479	      0.40388060	     25.50979785	     -0.41953100	    -11.50242363	     20.31978624	     20.31978624	      3.89220336	     -3.61961983	      2.70482162	      4.81689263	     -6.78966062	    -13.01506922	     15.01909588	     15.01909588	     14.13895435	    -10.81799972	     -1.71410805	    -11.71481272	      6.19040735	      2.74312373	    -12.52302428	    -11.83128408	     -7.35192419	     22.45006793	     46.59232497	      0.00000000	      0.00000000	      5.15038740	    -16.82380710	      8.22907488	     83.86023154	     46.94442689	      0.00000000	      0.00000000
     27.27100000	     -3.96615409	     -5.75074250	     -5.57814122	      0.86761659	      0.93501698	      0.40535179	     24.36200173	     -0.04811520	    -12.13582066	     17.34522332	     17.34522332	      3.78594578	     -2.06121160	      3.55990406	      4.49187739	     -6.77275703	    -13.13143199	     15.05682489	     15.05682489	     14.42651923	    -10.75754418	     -1.94267241	    -11.42466610	      6.03290091	      2.78649982	    -12.19940182	    -11.84140562	     -7.31160339	     22.63165492	     46.58490638	      0.00000000	      0.00000000	      5.60242625	    -17.16306700	      8.14333942	     84.26269307	     46.96994590	      0.00000000	      0.00000000
     27.28400000	     -3.91091416	     -5.65876573	     -5.61726718	      0.86836425	      0.93411340	      0.40676422	     23.17634600	      0.22015113	    -12.83407460	     15.04360271	     15.04360271	      3.78785579	     -0.54010336	      4.38578768	      3.97855229	     -6.73939313	    -13.30247028	     15.03662268	     15.03662268	     14.78980395	    -10.54500347	     -2.19197423	    -11.30685710	      5.94480230	      2.80987574	    -11.69617431	    -11.95562134	     -7.26480795	     22.85804544	     46.57735013	      0.00000000	      0.00000000	      6.05070216	    -17.49923726	      8.03763183	     84.54262841	     46.99735137	      0.00000000	      0.00000000
     27.29700000	     -3.88059169	     -5.55888975	     -5.62471086	      0.86927640	      0.93318002	      0.40828256	     22.17437569	      0.42452010	    -13.41759774	     13.45138968	     13.45138968	      3.71655858	      0.50867515	      4.98775891	      3.48271110	     -6.70577345	    -13.45449318	     15.00683959	     15.00683959	     15.14972937	    -10.31743682	     -2.37590119	    -11.07975320	      5.84894145	      2.83340738	    -11.09468268	    -11.99964577	     -7.21054737	     23.10722977	     46.56873542	      0.00000000	      0.00000000	      6.44781614	    -17.80325881	      7.88112650	     84.60668199	     47.02285374	      0.00000000	      0.00000000
     27.31000000	     -3.87165400	     -5.43964105	     -5.60598583	      0.87029866	      0.93217610	      0.40983232	     21.40322644	      0.53973721	    -13.79326056	     12.60718956	     12.60718956	      3.64440006	      0.97637910	      5.21113250	      3.01510668	     -6.64618216	    -13.54069574	     14.98192862	     14.98192862	     15.53650311	    -10.15798745	     -2.50671735	    -10.82278999	      5.73056183	      2.89002310	    -10.34381590	    -12.07175480	     -7.17442547	     23.40089442	     46.56085663	      0.00000000	      0.00000000	      6.90120055	    -18.06104306	      7.68907399	     84.54827521	     47.04435177	      0.00000000	      0.00000000
     27.32300000	     -3.68019565	     -5.49140275	     -5.52621654	      0.87170600	      0.93158757	      0.41142805	     20.36178389	      0.76770894	    -14.20896361	     11.97738098	     11.97738098	      3.44074504	      1.34455489	      5.14435497	      2.25815850	     -6.76340019	    -13.66603236	     14.86484157	     14.86484157	     15.92830724	     -9.79846964	     -2.50480652	    -10.68953730	      5.90336580	      2.80534110	     -9.49166419	    -12.18980615	     -7.12896683	     23.74159197	     46.55133155	      0.00000000	      0.00000000	      7.16469052	    -18.28880613	      7.44437168	     84.15313287	     47.06560344	      0.00000000	      0.00000000
